<svg xmlns="http://www.w3.org/2000/svg" version="1.1" viewBox="-5.0 -10.0 110.0 135.0">
 <path d="m71.34 61.492c3.625 2.4961 6.6992 6.3555 6.8008 11.551 0.11719 6.1445-4.9492 9.457-8.6719 11.109-3.9727 1.7656-8.4844 2.5938-10.449 3-2.0273 0.41797-4.0078-0.88281-4.4297-2.9102-0.42188-2.0273 0.88281-4.0117 2.9141-4.4297 2.2109-0.45703 5.8398-1.1445 8.9219-2.5117 3.3281-1.4766 4.2383-2.9219 4.2148-4.1133-0.039063-2.0391-1.2305-3.9648-3.6992-5.6133-0.32812-0.22266-0.67969-0.42969-1.0352-0.62891zm1.125-18.312-36.559 36.57c-1.6836 1.6836-3.9805 2.6328-6.3633 2.6328-4.9297 0-8.9648-4.0039-8.9648-8.9336 0.003906-2.3672 0.94531-4.6406 2.6172-6.3164l36.602-36.617zm-42.555-29.754c2.7266 0.09375 5.668 0.61719 8.1562 2.0039 2.6172 1.4609 4.6914 3.875 5.3086 7.3398 0.42578 2.3906-0.007812 4.5977-1.1602 6.4961-1.0898 1.7969-2.6914 3.1094-4.2734 4.1016-3.0391 1.9141-7.2266 3.3477-10.473 4.6133-3.6211 1.4102-6.25 2.6602-7.707 4.1523-0.63672 0.65234-0.93359 1.2422-1.043 1.8359-0.10938 0.61328-0.078125 1.5938 0.53516 3.1094 0.65234 1.6094 1.6328 2.9766 2.8789 4.1445l-5.3164 5.332c-1.8711-1.793-3.4336-3.9805-4.5156-6.6602-1.0078-2.4883-1.3789-4.9219-0.96094-7.2539 0.42188-2.3516 1.5859-4.25 3.0547-5.7539 2.7539-2.8164 6.918-4.5586 10.352-5.8984 3.8125-1.4844 6.9531-2.5547 9.2031-3.9727 1.0625-0.66797 1.6055-1.2266 1.8555-1.6406 0.1875-0.30859 0.30078-0.66016 0.1875-1.2891-0.16797-0.95703-0.65234-1.5938-1.582-2.1094-1.0625-0.59375-2.6836-0.98437-4.7539-1.0547-4.2148-0.14062-8.7852 1.0938-10.84 2.2891-1.7852 1.043-4.0859 0.43359-5.1289-1.3516-1.043-1.793-0.43359-4.0859 1.3555-5.1289 3.4688-2.0195 9.4844-3.4844 14.867-3.3047zm39.84 7.1328c3.4961-3.5 9.1719-3.5 12.672 0 3.4922 3.4961 3.4922 9.1641 0 12.66l-4.0938 4.0938-0.56641 0.5625-12.664-12.668 0.73047-0.72656z"/>
</svg>